<svg xmlns="http://www.w3.org/2000/svg" xmlns:xlink="http://www.w3.org/1999/xlink" viewBox="0 0 1140 1240" width="1140" height="1240" preserveAspectRatio="xMidYMid meet" style="width: 100%; height: 100%; transform: translate3d(0px, 0px, 0px); content-visibility: visible;"><defs><clipPath id="__lottie_element_38"><rect width="1140" height="1240" x="0" y="0"></rect></clipPath><g id="__lottie_element_113"><g transform="matrix(0.7431448101997375,0.6691306233406067,-0.6691306233406067,0.7431448101997375,712.9092407226562,117.16649627685547)" opacity="1" style="display: none;"><g opacity="1" transform="matrix(1,0,0,1,211.78799438476562,297.20098876953125)"><path fill="rgb(255,255,255)" fill-opacity="1" d=" M-5.400000095367432,-271.3340148925781 C-18.363000869750977,-259.6109924316406 -186.78799438476562,-98.23500061035156 -65.5260009765625,269.8380126953125 C-65.14399719238281,270.9989929199219 -64.05799865722656,271.7900085449219 -62.83700180053711,271.7929992675781 C-62.83700180053711,271.7929992675781 63.01900100708008,272.1969909667969 63.01900100708008,272.1969909667969 C64.24700164794922,272.20098876953125 65.34300231933594,271.40899658203125 65.72699737548828,270.24200439453125 C186.78799438476562,-97.28500366210938 15.64900016784668,-259.2799987792969 1.9859999418258667,-271.46600341796875 C1.4429999589920044,-271.95001220703125 0.7409999966621399,-272.20098876953125 0.014999999664723873,-272.177001953125 C0.014999999664723873,-272.177001953125 -3.5969998836517334,-272.0589904785156 -3.5969998836517334,-272.0589904785156 C-4.267000198364258,-272.0369873046875 -4.9019999504089355,-271.78399658203125 -5.400000095367432,-271.3340148925781z"></path><path stroke-linecap="butt" stroke-linejoin="miter" fill-opacity="0" stroke-miterlimit="10" stroke="rgb(0,0,0)" stroke-opacity="1" stroke-width="10" d=" M-5.400000095367432,-271.3340148925781 C-18.363000869750977,-259.6109924316406 -186.78799438476562,-98.23500061035156 -65.5260009765625,269.8380126953125 C-65.14399719238281,270.9989929199219 -64.05799865722656,271.7900085449219 -62.83700180053711,271.7929992675781 C-62.83700180053711,271.7929992675781 63.01900100708008,272.1969909667969 63.01900100708008,272.1969909667969 C64.24700164794922,272.20098876953125 65.34300231933594,271.40899658203125 65.72699737548828,270.24200439453125 C186.78799438476562,-97.28500366210938 15.64900016784668,-259.2799987792969 1.9859999418258667,-271.46600341796875 C1.4429999589920044,-271.95001220703125 0.7409999966621399,-272.20098876953125 0.014999999664723873,-272.177001953125 C0.014999999664723873,-272.177001953125 -3.5969998836517334,-272.0589904785156 -3.5969998836517334,-272.0589904785156 C-4.267000198364258,-272.0369873046875 -4.9019999504089355,-271.78399658203125 -5.400000095367432,-271.3340148925781z"></path></g><g opacity="1" transform="matrix(1,0,0,1,211.52200317382812,134.48800659179688)"><path stroke-linecap="butt" stroke-linejoin="miter" fill-opacity="0" stroke-miterlimit="10" stroke="rgb(0,0,0)" stroke-opacity="1" stroke-width="10" d=" M-82.75,24.75 C-82.75,24.75 6,-25.5 82.75,25.5"></path></g></g></g><filter id="__lottie_element_119" filterUnits="objectBoundingBox" x="0%" y="0%" width="100%" height="100%"><feComponentTransfer in="SourceGraphic"><feFuncA type="table" tableValues="1.0 0.0"></feFuncA></feComponentTransfer></filter><mask id="__lottie_element_113_2" mask-type="alpha"><g filter="url(#__lottie_element_119)"><rect width="1140" height="1240" x="0" y="0" fill="#ffffff" opacity="0"></rect><use xlink:href="#__lottie_element_113"></use></g></mask><g id="__lottie_element_120"><g style="display: block;" transform="matrix(0.7431448101997375,0.6691306233406067,-0.6691306233406067,0.7431448101997375,671.2661743164062,156.67408752441406)" opacity="1"><g opacity="1" transform="matrix(1,0,0,1,211.78799438476562,297.20098876953125)"><path fill="rgb(255,255,255)" fill-opacity="1" d=" M-5.400000095367432,-271.3340148925781 C-18.363000869750977,-259.6109924316406 -186.78799438476562,-98.23500061035156 -65.5260009765625,269.8380126953125 C-65.14399719238281,270.9989929199219 -64.05799865722656,271.7900085449219 -62.83700180053711,271.7929992675781 C-62.83700180053711,271.7929992675781 63.01900100708008,272.1969909667969 63.01900100708008,272.1969909667969 C64.24700164794922,272.20098876953125 65.34300231933594,271.40899658203125 65.72699737548828,270.24200439453125 C186.78799438476562,-97.28500366210938 15.64900016784668,-259.2799987792969 1.9859999418258667,-271.46600341796875 C1.4429999589920044,-271.95001220703125 0.7409999966621399,-272.20098876953125 0.014999999664723873,-272.177001953125 C0.014999999664723873,-272.177001953125 -3.5969998836517334,-272.0589904785156 -3.5969998836517334,-272.0589904785156 C-4.267000198364258,-272.0369873046875 -4.9019999504089355,-271.78399658203125 -5.400000095367432,-271.3340148925781z"></path><path stroke-linecap="butt" stroke-linejoin="miter" fill-opacity="0" stroke-miterlimit="10" stroke="rgb(0,0,0)" stroke-opacity="1" stroke-width="10" d=" M-5.400000095367432,-271.3340148925781 C-18.363000869750977,-259.6109924316406 -186.78799438476562,-98.23500061035156 -65.5260009765625,269.8380126953125 C-65.14399719238281,270.9989929199219 -64.05799865722656,271.7900085449219 -62.83700180053711,271.7929992675781 C-62.83700180053711,271.7929992675781 63.01900100708008,272.1969909667969 63.01900100708008,272.1969909667969 C64.24700164794922,272.20098876953125 65.34300231933594,271.40899658203125 65.72699737548828,270.24200439453125 C186.78799438476562,-97.28500366210938 15.64900016784668,-259.2799987792969 1.9859999418258667,-271.46600341796875 C1.4429999589920044,-271.95001220703125 0.7409999966621399,-272.20098876953125 0.014999999664723873,-272.177001953125 C0.014999999664723873,-272.177001953125 -3.5969998836517334,-272.0589904785156 -3.5969998836517334,-272.0589904785156 C-4.267000198364258,-272.0369873046875 -4.9019999504089355,-271.78399658203125 -5.400000095367432,-271.3340148925781z"></path></g><g opacity="1" transform="matrix(1,0,0,1,211.52200317382812,134.48800659179688)"><path stroke-linecap="butt" stroke-linejoin="miter" fill-opacity="0" stroke-miterlimit="10" stroke="rgb(0,0,0)" stroke-opacity="1" stroke-width="10" d=" M-82.75,24.75 C-82.75,24.75 6,-25.5 82.75,25.5"></path></g></g></g><filter id="__lottie_element_126" filterUnits="objectBoundingBox" x="0%" y="0%" width="100%" height="100%"><feComponentTransfer in="SourceGraphic"><feFuncA type="table" tableValues="1.0 0.0"></feFuncA></feComponentTransfer></filter><mask id="__lottie_element_120_2" mask-type="alpha"><g filter="url(#__lottie_element_126)"><rect width="1140" height="1240" x="0" y="0" fill="#ffffff" opacity="0"></rect><use xlink:href="#__lottie_element_120"></use></g></mask><g id="__lottie_element_127"><g transform="matrix(0.7431448101997375,0.6691306233406067,-0.6691306233406067,0.7431448101997375,671.2661743164062,156.67408752441406)" opacity="1" style="display: block;"><g opacity="1" transform="matrix(1,0,0,1,211.78799438476562,297.20098876953125)"><path fill="rgb(255,255,255)" fill-opacity="1" d=" M-5.400000095367432,-271.3340148925781 C-18.363000869750977,-259.6109924316406 -186.78799438476562,-98.23500061035156 -65.5260009765625,269.8380126953125 C-65.14399719238281,270.9989929199219 -64.05799865722656,271.7900085449219 -62.83700180053711,271.7929992675781 C-62.83700180053711,271.7929992675781 63.01900100708008,272.1969909667969 63.01900100708008,272.1969909667969 C64.24700164794922,272.20098876953125 65.34300231933594,271.40899658203125 65.72699737548828,270.24200439453125 C186.78799438476562,-97.28500366210938 15.64900016784668,-259.2799987792969 1.9859999418258667,-271.46600341796875 C1.4429999589920044,-271.95001220703125 0.7409999966621399,-272.20098876953125 0.014999999664723873,-272.177001953125 C0.014999999664723873,-272.177001953125 -3.5969998836517334,-272.0589904785156 -3.5969998836517334,-272.0589904785156 C-4.267000198364258,-272.0369873046875 -4.9019999504089355,-271.78399658203125 -5.400000095367432,-271.3340148925781z"></path><path stroke-linecap="butt" stroke-linejoin="miter" fill-opacity="0" stroke-miterlimit="10" stroke="rgb(0,0,0)" stroke-opacity="1" stroke-width="10" d=" M-5.400000095367432,-271.3340148925781 C-18.363000869750977,-259.6109924316406 -186.78799438476562,-98.23500061035156 -65.5260009765625,269.8380126953125 C-65.14399719238281,270.9989929199219 -64.05799865722656,271.7900085449219 -62.83700180053711,271.7929992675781 C-62.83700180053711,271.7929992675781 63.01900100708008,272.1969909667969 63.01900100708008,272.1969909667969 C64.24700164794922,272.20098876953125 65.34300231933594,271.40899658203125 65.72699737548828,270.24200439453125 C186.78799438476562,-97.28500366210938 15.64900016784668,-259.2799987792969 1.9859999418258667,-271.46600341796875 C1.4429999589920044,-271.95001220703125 0.7409999966621399,-272.20098876953125 0.014999999664723873,-272.177001953125 C0.014999999664723873,-272.177001953125 -3.5969998836517334,-272.0589904785156 -3.5969998836517334,-272.0589904785156 C-4.267000198364258,-272.0369873046875 -4.9019999504089355,-271.78399658203125 -5.400000095367432,-271.3340148925781z"></path></g><g opacity="1" transform="matrix(1,0,0,1,211.52200317382812,134.48800659179688)"><path stroke-linecap="butt" stroke-linejoin="miter" fill-opacity="0" stroke-miterlimit="10" stroke="rgb(0,0,0)" stroke-opacity="1" stroke-width="10" d=" M-82.75,24.75 C-82.75,24.75 6,-25.5 82.75,25.5"></path></g></g></g><mask id="__lottie_element_127_1" mask-type="alpha"><use xlink:href="#__lottie_element_127"></use></mask><g id="__lottie_element_133"><g transform="matrix(0.7431448101997375,0.6691306233406067,-0.6691306233406067,0.7431448101997375,671.2661743164062,156.67408752441406)" opacity="1" style="display: block;"><g opacity="1" transform="matrix(1,0,0,1,211.78799438476562,297.20098876953125)"><path fill="rgb(255,255,255)" fill-opacity="1" d=" M-5.400000095367432,-271.3340148925781 C-18.363000869750977,-259.6109924316406 -186.78799438476562,-98.23500061035156 -65.5260009765625,269.8380126953125 C-65.14399719238281,270.9989929199219 -64.05799865722656,271.7900085449219 -62.83700180053711,271.7929992675781 C-62.83700180053711,271.7929992675781 63.01900100708008,272.1969909667969 63.01900100708008,272.1969909667969 C64.24700164794922,272.20098876953125 65.34300231933594,271.40899658203125 65.72699737548828,270.24200439453125 C186.78799438476562,-97.28500366210938 15.64900016784668,-259.2799987792969 1.9859999418258667,-271.46600341796875 C1.4429999589920044,-271.95001220703125 0.7409999966621399,-272.20098876953125 0.014999999664723873,-272.177001953125 C0.014999999664723873,-272.177001953125 -3.5969998836517334,-272.0589904785156 -3.5969998836517334,-272.0589904785156 C-4.267000198364258,-272.0369873046875 -4.9019999504089355,-271.78399658203125 -5.400000095367432,-271.3340148925781z"></path><path stroke-linecap="butt" stroke-linejoin="miter" fill-opacity="0" stroke-miterlimit="10" stroke="rgb(0,0,0)" stroke-opacity="1" stroke-width="10" d=" M-5.400000095367432,-271.3340148925781 C-18.363000869750977,-259.6109924316406 -186.78799438476562,-98.23500061035156 -65.5260009765625,269.8380126953125 C-65.14399719238281,270.9989929199219 -64.05799865722656,271.7900085449219 -62.83700180053711,271.7929992675781 C-62.83700180053711,271.7929992675781 63.01900100708008,272.1969909667969 63.01900100708008,272.1969909667969 C64.24700164794922,272.20098876953125 65.34300231933594,271.40899658203125 65.72699737548828,270.24200439453125 C186.78799438476562,-97.28500366210938 15.64900016784668,-259.2799987792969 1.9859999418258667,-271.46600341796875 C1.4429999589920044,-271.95001220703125 0.7409999966621399,-272.20098876953125 0.014999999664723873,-272.177001953125 C0.014999999664723873,-272.177001953125 -3.5969998836517334,-272.0589904785156 -3.5969998836517334,-272.0589904785156 C-4.267000198364258,-272.0369873046875 -4.9019999504089355,-271.78399658203125 -5.400000095367432,-271.3340148925781z"></path></g><g opacity="1" transform="matrix(1,0,0,1,211.52200317382812,134.48800659179688)"><path stroke-linecap="butt" stroke-linejoin="miter" fill-opacity="0" stroke-miterlimit="10" stroke="rgb(0,0,0)" stroke-opacity="1" stroke-width="10" d=" M-82.75,24.75 C-82.75,24.75 6,-25.5 82.75,25.5"></path></g></g></g><mask id="__lottie_element_133_1" mask-type="alpha"><use xlink:href="#__lottie_element_133"></use></mask><clipPath id="__lottie_element_143"><path d="M0,0 L1147,0 L1147,1200 L0,1200z"></path></clipPath></defs><g clip-path="url(#__lottie_element_38)"><g clip-path="url(#__lottie_element_143)" transform="matrix(1,0,0,1,-3.5,20)" opacity="1" style="display: block;"><g transform="matrix(0.7660444378852844,0.6427876353263855,-0.6427876353263855,0.7660444378852844,542.8579711914062,574.2880249023438)" opacity="0.0773404050183008" style="display: block;"><g opacity="1" transform="matrix(1,0,0,1,-339.0270080566406,369.868896484375)"><path stroke-linecap="butt" stroke-linejoin="miter" fill-opacity="0" stroke-miterlimit="4" stroke="rgb(0,93,255)" stroke-opacity="1" stroke-width="8" d=" M0,-22.47249984741211 C12.402572631835938,-22.47249984741211 22.47249984741211,-12.402572631835938 22.47249984741211,0 C22.47249984741211,12.402572631835938 12.402572631835938,22.47249984741211 0,22.47249984741211 C-12.402572631835938,22.47249984741211 -22.47249984741211,12.402572631835938 -22.47249984741211,0 C-22.47249984741211,-12.402572631835938 -12.402572631835938,-22.47249984741211 0,-22.47249984741211z"></path></g></g><g transform="matrix(0.7660444378852844,0.6427876353263855,-0.6427876353263855,0.7660444378852844,1346.5946044921875,674.3241577148438)" opacity="1" style="display: block;"><g opacity="1" transform="matrix(1,0,0,1,-339.0270080566406,369.86907958984375)"><path stroke-linecap="butt" stroke-linejoin="miter" fill-opacity="0" stroke-miterlimit="4" stroke="rgb(0,93,255)" stroke-opacity="1" stroke-width="8" d=" M0,-22.47249984741211 C12.402572631835938,-22.47249984741211 22.47249984741211,-12.402572631835938 22.47249984741211,0 C22.47249984741211,12.402572631835938 12.402572631835938,22.47249984741211 0,22.47249984741211 C-12.402572631835938,22.47249984741211 -22.47249984741211,12.402572631835938 -22.47249984741211,0 C-22.47249984741211,-12.402572631835938 -12.402572631835938,-22.47249984741211 0,-22.47249984741211z"></path></g></g><g transform="matrix(0.44220682978630066,0.37105557322502136,-0.37105557322502136,0.44220682978630066,1332.2567138671875,487.11309814453125)" opacity="0.48505815360485083" style="display: block;"><g opacity="1" transform="matrix(1,0,0,1,-199.02699279785156,1480.9239501953125)"><path stroke-linecap="butt" stroke-linejoin="miter" fill-opacity="0" stroke-miterlimit="4" stroke="rgb(0,93,255)" stroke-opacity="1" stroke-width="8" d=" M0,-22.47249984741211 C12.402572631835938,-22.47249984741211 22.47249984741211,-12.402572631835938 22.47249984741211,0 C22.47249984741211,12.402572631835938 12.402572631835938,22.47249984741211 0,22.47249984741211 C-12.402572631835938,22.47249984741211 -22.47249984741211,12.402572631835938 -22.47249984741211,0 C-22.47249984741211,-12.402572631835938 -12.402572631835938,-22.47249984741211 0,-22.47249984741211z"></path></g></g><g transform="matrix(0.44220682978630066,0.37105557322502136,-0.37105557322502136,0.44220682978630066,1280.52734375,-493.5713806152344)" opacity="0.0027008553131085476" style="display: none;"><g opacity="1" transform="matrix(1,0,0,1,-199.02699279785156,3170.002685546875)"><path stroke-linecap="butt" stroke-linejoin="miter" fill-opacity="0" stroke-miterlimit="4" stroke="rgb(0,93,255)" stroke-opacity="1" stroke-width="8" d=" M0,-22.47249984741211 C12.402572631835938,-22.47249984741211 22.47249984741211,-12.402572631835938 22.47249984741211,0 C22.47249984741211,12.402572631835938 12.402572631835938,22.47249984741211 0,22.47249984741211 C-12.402572631835938,22.47249984741211 -22.47249984741211,12.402572631835938 -22.47249984741211,0 C-22.47249984741211,-12.402572631835938 -12.402572631835938,-22.47249984741211 0,-22.47249984741211z"></path></g></g><g transform="matrix(0,1,-1,0,286.8056640625,370.359130859375)" opacity="1" style="display: block;"><g opacity="1" transform="matrix(1,0,0,1,0,0)"><path stroke-linecap="round" stroke-linejoin="miter" fill-opacity="0" stroke-miterlimit="4" stroke="rgb(0,93,255)" stroke-opacity="1" stroke-width="8" d=" M-240,-287 C-240,-287 -240,-238.5 -240,-238.5"></path></g><g opacity="1" transform="matrix(0,1,-1,0,-502.6209716796875,-22.660995483398438)"><path stroke-linecap="round" stroke-linejoin="miter" fill-opacity="0" stroke-miterlimit="4" stroke="rgb(0,93,255)" stroke-opacity="1" stroke-width="8" d=" M-240,-287 C-240,-287 -240,-238.5 -240,-238.5"></path></g></g><g transform="matrix(0,1,-1,0,782.135498046875,744.59716796875)" opacity="1" style="display: block;"><g opacity="1" transform="matrix(1,0,0,1,0,0)"><path stroke-linecap="round" stroke-linejoin="miter" fill-opacity="0" stroke-miterlimit="4" stroke="rgb(0,93,255)" stroke-opacity="1" stroke-width="8" d=" M-240,-287 C-240,-287 -240,-238.5 -240,-238.5"></path></g><g opacity="1" transform="matrix(0,1,-1,0,-502.6209716796875,-22.660995483398438)"><path stroke-linecap="round" stroke-linejoin="miter" fill-opacity="0" stroke-miterlimit="4" stroke="rgb(0,93,255)" stroke-opacity="1" stroke-width="8" d=" M-240,-287 C-240,-287 -240,-238.5 -240,-238.5"></path></g></g><g transform="matrix(0,1,-1,0,294.0609130859375,1422.71875)" opacity="0.002666261814306665" style="display: none;"><g opacity="1" transform="matrix(1.0258100032806396,0,0,0.7424799799919128,6.151947021484375,-68.24691772460938)"><path stroke-linecap="round" stroke-linejoin="miter" fill-opacity="0" stroke-miterlimit="4" stroke="rgb(0,93,255)" stroke-opacity="1" stroke-width="8" d=" M-240,-287 C-240,-287 -240,-238.5 -240,-238.5"></path></g><g opacity="1" transform="matrix(0,0.8781200051307678,-0.6689500212669373,0,-416.137451171875,-51.961700439453125)"><path stroke-linecap="round" stroke-linejoin="miter" fill-opacity="0" stroke-miterlimit="4" stroke="rgb(0,93,255)" stroke-opacity="1" stroke-width="8" d=" M-240,-287 C-240,-287 -240,-238.5 -240,-238.5"></path></g></g><g transform="matrix(0,1,-1,0,76.18914794921875,702.25927734375)" opacity="1" style="display: block;"><g opacity="1" transform="matrix(1.0258100032806396,0,0,0.7424799799919128,6.151947021484375,-68.24691772460938)"><path stroke-linecap="round" stroke-linejoin="miter" fill-opacity="0" stroke-miterlimit="4" stroke="rgb(0,93,255)" stroke-opacity="1" stroke-width="8" d=" M-240,-287 C-240,-287 -240,-238.5 -240,-238.5"></path></g><g opacity="1" transform="matrix(0,0.8781200051307678,-0.6689500212669373,0,-416.137451171875,-51.961700439453125)"><path stroke-linecap="round" stroke-linejoin="miter" fill-opacity="0" stroke-miterlimit="4" stroke="rgb(0,93,255)" stroke-opacity="1" stroke-width="8" d=" M-240,-287 C-240,-287 -240,-238.5 -240,-238.5"></path></g></g></g><g transform="matrix(0.7431448101997375,0.6691306233406067,-0.6691306233406067,0.7431448101997375,671.2661743164062,156.67408752441406)" opacity="1" style="display: block;"><g opacity="1" transform="matrix(1,0,0,1,211.78799438476562,297.20098876953125)"><path fill="rgb(255,255,255)" fill-opacity="1" d=" M-5.400000095367432,-271.3340148925781 C-18.363000869750977,-259.6109924316406 -186.78799438476562,-98.23500061035156 -65.5260009765625,269.8380126953125 C-65.14399719238281,270.9989929199219 -64.05799865722656,271.7900085449219 -62.83700180053711,271.7929992675781 C-62.83700180053711,271.7929992675781 63.01900100708008,272.1969909667969 63.01900100708008,272.1969909667969 C64.24700164794922,272.20098876953125 65.34300231933594,271.40899658203125 65.72699737548828,270.24200439453125 C186.78799438476562,-97.28500366210938 15.64900016784668,-259.2799987792969 1.9859999418258667,-271.46600341796875 C1.4429999589920044,-271.95001220703125 0.7409999966621399,-272.20098876953125 0.014999999664723873,-272.177001953125 C0.014999999664723873,-272.177001953125 -3.5969998836517334,-272.0589904785156 -3.5969998836517334,-272.0589904785156 C-4.267000198364258,-272.0369873046875 -4.9019999504089355,-271.78399658203125 -5.400000095367432,-271.3340148925781z"></path><path stroke-linecap="butt" stroke-linejoin="miter" fill-opacity="0" stroke-miterlimit="10" stroke="rgb(0,0,0)" stroke-opacity="1" stroke-width="10" d=" M-5.400000095367432,-271.3340148925781 C-18.363000869750977,-259.6109924316406 -186.78799438476562,-98.23500061035156 -65.5260009765625,269.8380126953125 C-65.14399719238281,270.9989929199219 -64.05799865722656,271.7900085449219 -62.83700180053711,271.7929992675781 C-62.83700180053711,271.7929992675781 63.01900100708008,272.1969909667969 63.01900100708008,272.1969909667969 C64.24700164794922,272.20098876953125 65.34300231933594,271.40899658203125 65.72699737548828,270.24200439453125 C186.78799438476562,-97.28500366210938 15.64900016784668,-259.2799987792969 1.9859999418258667,-271.46600341796875 C1.4429999589920044,-271.95001220703125 0.7409999966621399,-272.20098876953125 0.014999999664723873,-272.177001953125 C0.014999999664723873,-272.177001953125 -3.5969998836517334,-272.0589904785156 -3.5969998836517334,-272.0589904785156 C-4.267000198364258,-272.0369873046875 -4.9019999504089355,-271.78399658203125 -5.400000095367432,-271.3340148925781z"></path></g><g opacity="1" transform="matrix(1,0,0,1,211.52200317382812,134.48800659179688)"><path stroke-linecap="butt" stroke-linejoin="miter" fill-opacity="0" stroke-miterlimit="10" stroke="rgb(0,0,0)" stroke-opacity="1" stroke-width="10" d=" M-82.75,24.75 C-82.75,24.75 6,-25.5 82.75,25.5"></path></g></g><g mask="url(#__lottie_element_133_1)" style="display: block;"><g transform="matrix(0.7431448101997375,0.6691306233406067,-0.6691306233406067,0.7431448101997375,522.1173095703125,315.1087646484375)" opacity="1"><g opacity="1" transform="matrix(1,0,0,1,76.33399963378906,201)"><path stroke-linecap="butt" stroke-linejoin="miter" fill-opacity="0" stroke-miterlimit="10" stroke="rgb(0,0,0)" stroke-opacity="1" stroke-width="10" d=" M30.172000885009766,0 C30.172000885009766,16.663000106811523 16.663000106811523,30.172000885009766 0,30.172000885009766 C-16.663000106811523,30.172000885009766 -30.172000885009766,16.663000106811523 -30.172000885009766,0 C-30.172000885009766,-16.663999557495117 -16.663000106811523,-30.172000885009766 0,-30.172000885009766 C16.663000106811523,-30.172000885009766 30.172000885009766,-16.663999557495117 30.172000885009766,0z"></path></g><g opacity="1" transform="matrix(1,0,0,1,76.33399963378906,76.33300018310547)"><path stroke-linecap="butt" stroke-linejoin="miter" fill-opacity="0" stroke-miterlimit="10" stroke="rgb(0,0,0)" stroke-opacity="1" stroke-width="10" d=" M51.33399963378906,0 C51.33399963378906,28.35099983215332 28.351999282836914,51.33300018310547 0.0010000000474974513,51.33300018310547 C-28.350000381469727,51.33300018310547 -51.33399963378906,28.35099983215332 -51.33399963378906,0 C-51.33399963378906,-28.35099983215332 -28.350000381469727,-51.33300018310547 0.0010000000474974513,-51.33300018310547 C28.351999282836914,-51.33300018310547 51.33399963378906,-28.35099983215332 51.33399963378906,0z"></path></g></g></g><g mask="url(#__lottie_element_127_1)" style="display: block;"><g transform="matrix(0.7431448101997375,0.6691306233406067,-0.6691306233406067,0.7431448101997375,724.0202026367188,496.9029541015625)" opacity="1"><g opacity="1" transform="matrix(1,0,0,1,76.33399963378906,201)"><path stroke-linecap="butt" stroke-linejoin="miter" fill-opacity="0" stroke-miterlimit="10" stroke="rgb(0,0,0)" stroke-opacity="1" stroke-width="10" d=" M30.172000885009766,0 C30.172000885009766,16.663000106811523 16.663000106811523,30.172000885009766 0,30.172000885009766 C-16.663000106811523,30.172000885009766 -30.172000885009766,16.663000106811523 -30.172000885009766,0 C-30.172000885009766,-16.663999557495117 -16.663000106811523,-30.172000885009766 0,-30.172000885009766 C16.663000106811523,-30.172000885009766 30.172000885009766,-16.663999557495117 30.172000885009766,0z"></path></g><g opacity="1" transform="matrix(1,0,0,1,76.33399963378906,76.33300018310547)"><path stroke-linecap="butt" stroke-linejoin="miter" fill-opacity="0" stroke-miterlimit="10" stroke="rgb(0,0,0)" stroke-opacity="1" stroke-width="10" d=" M51.33399963378906,0 C51.33399963378906,28.35099983215332 28.351999282836914,51.33300018310547 0.0010000000474974513,51.33300018310547 C-28.350000381469727,51.33300018310547 -51.33399963378906,28.35099983215332 -51.33399963378906,0 C-51.33399963378906,-28.35099983215332 -28.350000381469727,-51.33300018310547 0.0010000000474974513,-51.33300018310547 C28.351999282836914,-51.33300018310547 51.33399963378906,-28.35099983215332 51.33399963378906,0z"></path></g></g></g><g mask="url(#__lottie_element_120_2)" style="display: block;"><g transform="matrix(0.7431448101997375,0.6691306233406067,-0.6691306233406067,0.7431448101997375,706.1817016601562,539.3627319335938)" opacity="1"><g opacity="1" transform="matrix(1,0,0,1,81.89600372314453,118.27200317382812)"><path fill="rgb(255,255,255)" fill-opacity="1" d=" M-146.83544921875,-92.24299621582031 C-144.52915954589844,-63.96200180053711 -142.96356201171875,61.69004821777344 -142.641845703125,89.10900115966797 C-142.6162872314453,91.31300354003906 -142.70819091796875,93.27152252197266 -142.80198669433594,92.51399993896484 C-143.42501831054688,87.47899627685547 -145.2952117919922,74.51252746582031 -147.4229278564453,80.3949966430664 C-147.5065460205078,80.6259994506836 -147.57498168945312,78.90299987792969 -147.55874633789062,77.01000213623047 C-147.0380401611328,17.68199920654297 -146.96109008789062,-57.64099884033203 -147.01705932617188,-89.62200164794922 C-147.02085876464844,-91.80400085449219 -146.91949462890625,-93.27200317382812 -146.83544921875,-92.24299621582031z"></path><path stroke-linecap="butt" stroke-linejoin="miter" fill-opacity="0" stroke-miterlimit="10" stroke="rgb(0,0,0)" stroke-opacity="1" stroke-width="10" d=" M-146.83544921875,-92.24299621582031 C-144.52915954589844,-63.96200180053711 -142.96356201171875,61.69004821777344 -142.641845703125,89.10900115966797 C-142.6162872314453,91.31300354003906 -142.70819091796875,93.27152252197266 -142.80198669433594,92.51399993896484 C-143.42501831054688,87.47899627685547 -145.2952117919922,74.51252746582031 -147.4229278564453,80.3949966430664 C-147.5065460205078,80.6259994506836 -147.57498168945312,78.90299987792969 -147.55874633789062,77.01000213623047 C-147.0380401611328,17.68199920654297 -146.96109008789062,-57.64099884033203 -147.01705932617188,-89.62200164794922 C-147.02085876464844,-91.80400085449219 -146.91949462890625,-93.27200317382812 -146.83544921875,-92.24299621582031z"></path></g></g></g><g mask="url(#__lottie_element_113_2)" style="display: block;"><g transform="matrix(0.7431448101997375,0.6691306233406067,-0.6691306233406067,0.7431448101997375,479.7923278808594,335.5207824707031)" opacity="1"><g opacity="1" transform="matrix(1,0,0,1,81.8949966430664,118.27200317382812)"><path fill="rgb(255,255,255)" fill-opacity="1" d=" M147.1883544921875,-92.24299621582031 C144.49449157714844,-63.96200180053711 142.66445922851562,61.69004821777344 142.28892517089844,89.10900115966797 C142.2590789794922,91.31300354003906 142.36679077148438,93.27152252197266 142.476318359375,92.51399993896484 C143.20411682128906,87.47899627685547 145.38906860351562,74.51252746582031 147.87393188476562,80.3949966430664 C147.9713592529297,80.6259994506836 148.05113220214844,78.90299987792969 148.03204345703125,77.01000213623047 C147.42372131347656,17.68199920654297 147.33343505859375,-57.64099884033203 147.39944458007812,-89.62200164794922 C147.40420532226562,-91.80400085449219 147.2866973876953,-93.27200317382812 147.1883544921875,-92.24299621582031z"></path><path stroke-linecap="butt" stroke-linejoin="miter" fill-opacity="0" stroke-miterlimit="10" stroke="rgb(0,0,0)" stroke-opacity="1" stroke-width="10" d=" M147.1883544921875,-92.24299621582031 C144.49449157714844,-63.96200180053711 142.66445922851562,61.69004821777344 142.28892517089844,89.10900115966797 C142.2590789794922,91.31300354003906 142.36679077148438,93.27152252197266 142.476318359375,92.51399993896484 C143.20411682128906,87.47899627685547 145.38906860351562,74.51252746582031 147.87393188476562,80.3949966430664 C147.9713592529297,80.6259994506836 148.05113220214844,78.90299987792969 148.03204345703125,77.01000213623047 C147.42372131347656,17.68199920654297 147.33343505859375,-57.64099884033203 147.39944458007812,-89.62200164794922 C147.40420532226562,-91.80400085449219 147.2866973876953,-93.27200317382812 147.1883544921875,-92.24299621582031z"></path></g></g></g><g transform="matrix(0.7431448101997375,0.6691306233406067,-0.6691306233406067,0.7431448101997375,611.4957275390625,540.1865844726562)" opacity="1" style="display: none;"><g opacity="1" transform="matrix(1,0,0,1,0,0)"><path stroke-linecap="round" stroke-linejoin="miter" fill-opacity="0" stroke-miterlimit="4" stroke="rgb(0,93,255)" stroke-opacity="1" stroke-width="10" d="M0 0"></path></g></g><g transform="matrix(-0.7431448101997375,-0.6691306233406067,-0.6691306233406067,0.7431448101997375,636.0944213867188,516.8492431640625)" opacity="1" style="display: none;"><g opacity="1" transform="matrix(1,0,0,1,0,0)"><path stroke-linecap="round" stroke-linejoin="miter" fill-opacity="0" stroke-miterlimit="4" stroke="rgb(0,93,255)" stroke-opacity="1" stroke-width="10" d="M0 0"></path></g></g><g transform="matrix(0.7431448101997375,0.6691306233406067,-0.6691306233406067,0.7431448101997375,645.0590209960938,508.3443908691406)" opacity="1" style="display: none;"><g opacity="1" transform="matrix(1,0,0,1,0,0)"><path stroke-linecap="round" stroke-linejoin="miter" fill-opacity="0" stroke-miterlimit="4" stroke="rgb(0,93,255)" stroke-opacity="1" stroke-width="10" d="M0 0"></path></g></g><g transform="matrix(-0.7431448101997375,-0.6691306233406067,-0.6691306233406067,0.7431448101997375,642.16943359375,511.08575439453125)" opacity="1" style="display: none;"><g opacity="1" transform="matrix(1,0,0,1,0,0)"><path stroke-linecap="round" stroke-linejoin="miter" fill-opacity="0" stroke-miterlimit="4" stroke="rgb(0,93,255)" stroke-opacity="1" stroke-width="10" d="M0 0"></path></g></g><g transform="matrix(0.7431448101997375,0.6691306233406067,-0.6691306233406067,0.7431448101997375,623.6591186523438,528.6469116210938)" opacity="1" style="display: none;"><g opacity="1" transform="matrix(1,0,0,1,0,0)"><path stroke-linecap="round" stroke-linejoin="miter" fill-opacity="0" stroke-miterlimit="4" stroke="rgb(0,93,255)" stroke-opacity="1" stroke-width="10" d="M0 0"></path></g></g><g transform="matrix(-0.7431448101997375,-0.6691306233406067,-0.6691306233406067,0.7431448101997375,605.8847045898438,545.5098266601562)" opacity="1" style="display: block;"><g opacity="1" transform="matrix(1,0,0,1,0,0)"><path stroke-linecap="round" stroke-linejoin="miter" fill-opacity="0" stroke-miterlimit="4" stroke="rgb(0,93,255)" stroke-opacity="1" stroke-width="10" d=" M-109.697998046875,213.25599670410156 C-100.97899627685547,249.14700317382812 -91.13999938964844,289.90301513671875 -85.54299926757812,324.8030090332031"></path></g></g><g transform="matrix(0.7431448101997375,0.6691306233406067,-0.6691306233406067,0.7431448101997375,605.8847045898438,545.5098266601562)" opacity="1" style="display: block;"><g opacity="1" transform="matrix(1,0,0,1,0,0)"><path stroke-linecap="round" stroke-linejoin="miter" fill-opacity="0" stroke-miterlimit="4" stroke="rgb(0,93,255)" stroke-opacity="1" stroke-width="10" d=" M-131.46600341796875,-119.51100158691406 C-134.1009979248047,-102.66699981689453 -135.52499389648438,-88.76000213623047 -137,-79 C-143.1219940185547,-38.50199890136719 -139.48599243164062,60.09400177001953 -129.01800537109375,121.55500030517578"></path></g></g><g transform="matrix(-0.7431448101997375,-0.6691306233406067,-0.6691306233406067,0.7431448101997375,605.8847045898438,545.5098266601562)" opacity="1" style="display: block;"><g opacity="1" transform="matrix(1,0,0,1,0,0)"><path stroke-linecap="round" stroke-linejoin="miter" fill-opacity="0" stroke-miterlimit="4" stroke="rgb(0,93,255)" stroke-opacity="1" stroke-width="10" d="M0 0"></path></g></g><g transform="matrix(0.7431448101997375,0.6691306233406067,-0.6691306233406067,0.7431448101997375,605.8847045898438,545.5098266601562)" opacity="1" style="display: block;"><g opacity="1" transform="matrix(1,0,0,1,0,0)"><path stroke-linecap="round" stroke-linejoin="miter" fill-opacity="0" stroke-miterlimit="4" stroke="rgb(0,93,255)" stroke-opacity="1" stroke-width="10" d="M0 0"></path></g></g><g transform="matrix(0.7431448101997375,0.6691306233406067,-0.6691306233406067,0.7431448101997375,506.2552490234375,671.1043090820312)" opacity="1" style="display: block;"><g opacity="1" transform="matrix(1,0,0,1,0,0)"><path stroke-linecap="round" stroke-linejoin="round" fill-opacity="0" stroke="rgb(0,0,0)" stroke-opacity="1" stroke-width="10" d=" M-25,76.5 C-45,84 -76.30987548828125,98.3802490234375 -77.21481323242188,159.57406616210938 C-77.26419067382812,224.57037353515625 -28.975311279296875,261.8592529296875 -28.785186767578125,395.6827392578125"></path></g></g><g transform="matrix(-0.7431448101997375,-0.6691306233406067,-0.6691306233406067,0.7431448101997375,491.3923645019531,657.7216796875)" opacity="1" style="display: block;"><g opacity="1" transform="matrix(1,0,0,1,0,0)"><path stroke-linecap="round" stroke-linejoin="round" fill-opacity="0" stroke="rgb(0,0,0)" stroke-opacity="1" stroke-width="10" d=" M-25,76.5 C-45,84 -76.30987548828125,98.3802490234375 -77.21481323242188,159.57406616210938 C-77.26419067382812,224.57037353515625 -28.975311279296875,261.8592529296875 -28.785186767578125,395.6827392578125"></path></g></g><g transform="matrix(0.7431448101997375,0.6691306233406067,-0.6691306233406067,0.7431448101997375,506.8533630371094,655.4952392578125)" opacity="1" style="display: block;"><g opacity="1" transform="matrix(1,0,0,1,0,0)"><path stroke-linecap="round" stroke-linejoin="round" fill-opacity="0" stroke="rgb(0,93,255)" stroke-opacity="1" stroke-width="10" d="M0 0"></path></g></g><g transform="matrix(0.7431448101997375,0.6691306233406067,-0.6691306233406067,0.7431448101997375,506.8533630371094,655.4952392578125)" opacity="1" style="display: block;"><g opacity="1" transform="matrix(1,0,0,1,0,0)"><path stroke-linecap="round" stroke-linejoin="round" fill-opacity="0" stroke="rgb(0,93,255)" stroke-opacity="1" stroke-width="10" d="M0 0"></path></g></g><g transform="matrix(-0.7431448101997375,-0.6691306233406067,-0.6691306233406067,0.7431448101997375,506.8533630371094,655.4952392578125)" opacity="1" style="display: block;"><g opacity="1" transform="matrix(1,0,0,1,0,0)"><path stroke-linecap="round" stroke-linejoin="round" fill-opacity="0" stroke="rgb(0,93,255)" stroke-opacity="1" stroke-width="10" d="M0 0"></path></g></g><g transform="matrix(0.7431448101997375,0.6691306233406067,-0.6691306233406067,0.7431448101997375,506.8533630371094,655.4952392578125)" opacity="1" style="display: block;"><g opacity="1" transform="matrix(1,0,0,1,0,0)"><path stroke-linecap="round" stroke-linejoin="round" fill-opacity="0" stroke="rgb(0,93,255)" stroke-opacity="1" stroke-width="10" d="M0 0"></path></g></g><g transform="matrix(-0.7431448101997375,-0.6691306233406067,-0.6691306233406067,0.7431448101997375,506.8533630371094,655.4952392578125)" opacity="1" style="display: block;"><g opacity="1" transform="matrix(1,0,0,1,0,0)"><path stroke-linecap="round" stroke-linejoin="round" fill-opacity="0" stroke="rgb(0,93,255)" stroke-opacity="1" stroke-width="10" d="M0 0"></path></g></g><g transform="matrix(0.7431448101997375,0.6691306233406067,-0.6691306233406067,0.7431448101997375,506.8533630371094,655.4952392578125)" opacity="1" style="display: block;"><g opacity="1" transform="matrix(1,0,0,1,0,0)"><path stroke-linecap="round" stroke-linejoin="round" fill-opacity="0" stroke="rgb(0,93,255)" stroke-opacity="1" stroke-width="10" d="M0 0"></path></g></g><g transform="matrix(-0.7431448101997375,-0.6691306233406067,-0.6691306233406067,0.7431448101997375,506.8533630371094,655.4952392578125)" opacity="1" style="display: block;"><g opacity="1" transform="matrix(1,0,0,1,0,0)"><path stroke-linecap="round" stroke-linejoin="round" fill-opacity="0" stroke="rgb(0,93,255)" stroke-opacity="1" stroke-width="10" d="M0 0"></path></g></g><g transform="matrix(0.7431448101997375,0.6691306233406067,-0.6691306233406067,0.7431448101997375,506.8533630371094,655.4952392578125)" opacity="1" style="display: block;"><g opacity="1" transform="matrix(1,0,0,1,0,0)"><path stroke-linecap="round" stroke-linejoin="round" fill-opacity="0" stroke="rgb(0,93,255)" stroke-opacity="1" stroke-width="10" d="M0 0"></path></g></g><g transform="matrix(-0.7431448101997375,-0.6691306233406067,-0.6691306233406067,0.7431448101997375,506.8533630371094,655.4952392578125)" opacity="1" style="display: block;"><g opacity="1" transform="matrix(1,0,0,1,0,0)"><path stroke-linecap="round" stroke-linejoin="round" fill-opacity="0" stroke="rgb(0,93,255)" stroke-opacity="1" stroke-width="10" d="M0 0"></path></g></g><g transform="matrix(0.7431448101997375,0.6691306233406067,-0.6691306233406067,0.7431448101997375,506.8533630371094,655.4952392578125)" opacity="1" style="display: block;"><g opacity="1" transform="matrix(1,0,0,1,0,0)"><path stroke-linecap="round" stroke-linejoin="round" fill-opacity="0" stroke="rgb(0,93,255)" stroke-opacity="1" stroke-width="10" d="M0 0"></path></g></g><g transform="matrix(-0.7431448101997375,-0.6691306233406067,-0.6691306233406067,0.7431448101997375,506.8533630371094,655.4952392578125)" opacity="1" style="display: block;"><g opacity="1" transform="matrix(1,0,0,1,0,0)"><path stroke-linecap="round" stroke-linejoin="round" fill-opacity="0" stroke="rgb(0,93,255)" stroke-opacity="1" stroke-width="10" d=" M-7.89300012588501,314.1679992675781 C-0.414000004529953,337.5169982910156 0.7749999761581421,353.63299560546875 0.8169999718666077,376.3789978027344"></path></g></g><g transform="matrix(0.7431448101997375,0.6691306233406067,-0.6691306233406067,0.7431448101997375,506.8533630371094,655.4952392578125)" opacity="1" style="display: block;"><g opacity="1" transform="matrix(1,0,0,1,0,0)"><path stroke-linecap="round" stroke-linejoin="round" fill-opacity="0" stroke="rgb(0,93,255)" stroke-opacity="1" stroke-width="10" d=" M-5,108.5 C-5,108.5 -30.172000885009766,120.38700103759766 -38.345001220703125,160.49099731445312"></path></g></g><g transform="matrix(-0.7431448101997375,-0.6691306233406067,-0.6691306233406067,0.7431448101997375,506.8533630371094,655.4952392578125)" opacity="1" style="display: block;"><g opacity="1" transform="matrix(1,0,0,1,0,0)"><path stroke-linecap="round" stroke-linejoin="round" fill-opacity="0" stroke="rgb(0,93,255)" stroke-opacity="1" stroke-width="10" d="M0 0"></path></g></g></g></svg>