<svg xmlns="http://www.w3.org/2000/svg" xmlns:xlink="http://www.w3.org/1999/xlink" viewBox="0 0 1080 1080" width="1080" height="1080" preserveAspectRatio="xMidYMid meet" style="width: 100%; height: 100%; transform: translate3d(0px, 0px, 0px); content-visibility: visible;"><defs><clipPath id="__lottie_element_2"><rect width="1080" height="1080" x="0" y="0"></rect></clipPath></defs><g clip-path="url(#__lottie_element_2)"><g transform="matrix(0.9987245798110962,-0.050490185618400574,0.050490185618400574,0.9987245798110962,703.8185424804688,235.9273681640625)" opacity="1" style="display: none;"><g opacity="1" transform="matrix(1,0,0,1,134.60000610351562,165.39999389648438)"><path fill="rgb(255,255,255)" fill-opacity="1" d=" M114.5999984741211,-63.400001525878906 C114.5999984741211,-63.400001525878906 -35.79999923706055,87 -35.79999923706055,87 C-35.79999923706055,87 -114.5999984741211,114.5999984741211 -114.5999984741211,114.5999984741211 C-114.5999984741211,114.5999984741211 -87,35.79999923706055 -87,35.79999923706055 C-87,35.79999923706055 63.400001525878906,-114.5999984741211 63.400001525878906,-114.5999984741211 C63.400001525878906,-114.5999984741211 114.5999984741211,-63.400001525878906 114.5999984741211,-63.400001525878906z"></path></g><g opacity="1" transform="matrix(1,0,0,1,148.48599243164062,151.83200073242188)"><path fill="rgb(255,255,255)" fill-opacity="1" d=" M-100.83200073242188,49.63800048828125 C-100.83200073242188,49.63800048828125 49.638999938964844,-100.83200073242188 49.638999938964844,-100.83200073242188 C49.638999938964844,-100.83200073242188 100.83300018310547,-49.63800048828125 100.83300018310547,-49.63800048828125 C100.83300018310547,-49.63800048828125 -49.638999938964844,100.83200073242188 -49.638999938964844,100.83200073242188 C-49.638999938964844,100.83200073242188 -100.83200073242188,49.63800048828125 -100.83200073242188,49.63800048828125z"></path></g><g opacity="1" transform="matrix(1,0,0,1,36.79999923706055,262.3999938964844)"><path fill="rgb(0,0,0)" fill-opacity="1" d=" M-4.800000190734863,-16.799999237060547 C-4.800000190734863,-16.799999237060547 -16.799999237060547,16.799999237060547 -16.799999237060547,16.799999237060547 C-16.799999237060547,16.799999237060547 16.799999237060547,4.800000190734863 16.799999237060547,4.800000190734863 C16.799999237060547,4.800000190734863 -4.800000190734863,-16.799999237060547 -4.800000190734863,-16.799999237060547z"></path></g><g opacity="1" transform="matrix(1,0,0,1,134.60000610351562,165.39999389648438)"><path stroke-linecap="round" stroke-linejoin="round" fill-opacity="0" stroke="rgb(0,0,0)" stroke-opacity="1" stroke-width="8" d=" M114.5999984741211,-63.400001525878906 C114.5999984741211,-63.400001525878906 -35.79999923706055,87 -35.79999923706055,87 C-35.79999923706055,87 -114.5999984741211,114.5999984741211 -114.5999984741211,114.5999984741211 C-114.5999984741211,114.5999984741211 -87,35.79999923706055 -87,35.79999923706055 C-87,35.79999923706055 63.400001525878906,-114.5999984741211 63.400001525878906,-114.5999984741211 C63.400001525878906,-114.5999984741211 114.5999984741211,-63.400001525878906 114.5999984741211,-63.400001525878906z"></path></g><g opacity="1" transform="matrix(1,0,0,1,239,61)"><path fill="rgb(0,0,0)" fill-opacity="1" d=" M10.199999809265137,41 C10.199999809265137,41 34.20000076293945,17 34.20000076293945,17 C41,10.199999809265137 41,-0.6000000238418579 34.20000076293945,-7 C34.20000076293945,-7 7,-34.20000076293945 7,-34.20000076293945 C0.20000000298023224,-41 -10.600000381469727,-41 -17,-34.20000076293945 C-17,-34.20000076293945 -41,-10.199999809265137 -41,-10.199999809265137 C-41,-10.199999809265137 10.199999809265137,41 10.199999809265137,41z"></path></g><g opacity="1" transform="matrix(1,0,0,1,239,61)"><path stroke-linecap="round" stroke-linejoin="round" fill-opacity="0" stroke="rgb(0,0,0)" stroke-opacity="1" stroke-width="8" d=" M10.199999809265137,41 C10.199999809265137,41 34.20000076293945,17 34.20000076293945,17 C41,10.199999809265137 41,-0.6000000238418579 34.20000076293945,-7 C34.20000076293945,-7 7,-34.20000076293945 7,-34.20000076293945 C0.20000000298023224,-41 -10.600000381469727,-41 -17,-34.20000076293945 C-17,-34.20000076293945 -41,-10.199999809265137 -41,-10.199999809265137 C-41,-10.199999809265137 10.199999809265137,41 10.199999809265137,41z"></path></g><g opacity="1" transform="matrix(1,0,0,1,178.60000610351562,142.60000610351562)"><path stroke-linecap="round" stroke-linejoin="round" fill-opacity="0" stroke="rgb(0,0,0)" stroke-opacity="1" stroke-width="8" d=" M-52.599998474121094,52.599998474121094 C-52.599998474121094,52.599998474121094 52.599998474121094,-52.599998474121094 52.599998474121094,-52.599998474121094"></path></g><g opacity="1" transform="matrix(1,0,0,1,95.80000305175781,225.39999389648438)"><path stroke-linecap="round" stroke-linejoin="round" fill-opacity="0" stroke="rgb(0,0,0)" stroke-opacity="1" stroke-width="8" d=" M-12.199999809265137,12.199999809265137 C-12.199999809265137,12.199999809265137 12.199999809265137,-12.199999809265137 12.199999809265137,-12.199999809265137"></path></g><g opacity="1" transform="matrix(1,0,0,1,222.21200561523438,78.28500366210938)"><path fill="rgb(255,255,255)" fill-opacity="1" d=" M-36.0620002746582,-15.131999969482422 C-36.0620002746582,-15.131999969482422 -15.131999969482422,-36.0620002746582 -15.131999969482422,-36.0620002746582 C-15.131999969482422,-36.0620002746582 36.0620002746582,15.131999969482422 36.0620002746582,15.131999969482422 C36.0620002746582,15.131999969482422 15.131999969482422,36.0620002746582 15.131999969482422,36.0620002746582 C15.131999969482422,36.0620002746582 -36.0620002746582,-15.131999969482422 -36.0620002746582,-15.131999969482422z"></path></g><g opacity="1" transform="matrix(1,0,0,1,222.21200561523438,78.28500366210938)"><path stroke-linecap="round" stroke-linejoin="round" fill-opacity="0" stroke="rgb(0,0,0)" stroke-opacity="1" stroke-width="8" d=" M-36.0620002746582,-15.131999969482422 C-36.0620002746582,-15.131999969482422 -15.131999969482422,-36.0620002746582 -15.131999969482422,-36.0620002746582 C-15.131999969482422,-36.0620002746582 36.0620002746582,15.131999969482422 36.0620002746582,15.131999969482422 C36.0620002746582,15.131999969482422 15.131999969482422,36.0620002746582 15.131999969482422,36.0620002746582 C15.131999969482422,36.0620002746582 -36.0620002746582,-15.131999969482422 -36.0620002746582,-15.131999969482422z"></path></g></g><g transform="matrix(1,0,0,1,322.343017578125,346.343017578125)" opacity="1" style="display: block;"><g opacity="1" transform="matrix(1,0,0,1,141.65699768066406,171.65699768066406)"><path fill="rgb(255,255,255)" fill-opacity="1" d=" M-136,-166 C-136,-166 136,-166 136,-166 C136,-166 136,166 136,166 C136,166 -136,166 -136,166 C-136,166 -136,-166 -136,-166z"></path><path stroke-linecap="round" stroke-linejoin="round" fill-opacity="0" stroke="rgb(0,0,0)" stroke-opacity="1" stroke-width="8" d=" M-136,-166 C-136,-166 136,-166 136,-166 C136,-166 136,166 136,166 C136,166 -136,166 -136,166 C-136,166 -136,-166 -136,-166z"></path></g><g opacity="1" transform="matrix(1,0,0,1,73.65699768066406,93.65699768066406)"><path fill="rgb(255,255,255)" fill-opacity="1" d=" M20,28 C20,28 -20,28 -20,28 C-24.399999618530273,28 -28,24.399999618530273 -28,20 C-28,20 -28,-20 -28,-20 C-28,-24.399999618530273 -24.399999618530273,-28 -20,-28 C-20,-28 20,-28 20,-28 C24.399999618530273,-28 28,-24.399999618530273 28,-20 C28,-20 28,20 28,20 C28,24.399999618530273 24.399999618530273,28 20,28z"></path></g><g opacity="1" transform="matrix(1,0,0,1,73.65699768066406,173.65699768066406)"><path fill="rgb(255,255,255)" fill-opacity="1" d=" M19.200000762939453,28 C19.200000762939453,28 -20,28 -20,28 C-24.399999618530273,28 -28,24.399999618530273 -28,20 C-28,20 -28,-20 -28,-20 C-28,-24.399999618530273 -24.399999618530273,-28 -20,-28 C-20,-28 20,-28 20,-28 C24.399999618530273,-28 28,-24.399999618530273 28,-20 C28,-20 28,19.200000762939453 28,19.200000762939453 C28,24 24,28 19.200000762939453,28z"></path></g><g opacity="1" transform="matrix(1,0,0,1,73.65699768066406,257.6570129394531)"><path fill="rgb(255,255,255)" fill-opacity="1" d=" M20,28 C20,28 -20,28 -20,28 C-24.399999618530273,28 -28,24.399999618530273 -28,20 C-28,20 -28,-20 -28,-20 C-28,-24.399999618530273 -24.399999618530273,-28 -20,-28 C-20,-28 20,-28 20,-28 C24.399999618530273,-28 28,-24.399999618530273 28,-20 C28,-20 28,20 28,20 C28,24.399999618530273 24.399999618530273,28 20,28z"></path></g><g opacity="1" transform="matrix(1,0,0,1,73.65699768066406,93.65699768066406)"><path stroke-linecap="round" stroke-linejoin="round" fill-opacity="0" stroke="rgb(0,0,0)" stroke-opacity="1" stroke-width="8" d=" M20,28 C20,28 -20,28 -20,28 C-24.399999618530273,28 -28,24.399999618530273 -28,20 C-28,20 -28,-20 -28,-20 C-28,-24.399999618530273 -24.399999618530273,-28 -20,-28 C-20,-28 20,-28 20,-28 C24.399999618530273,-28 28,-24.399999618530273 28,-20 C28,-20 28,20 28,20 C28,24.399999618530273 24.399999618530273,28 20,28z"></path></g><g opacity="1" transform="matrix(1,0,0,1,73.65699768066406,173.65699768066406)"><path stroke-linecap="round" stroke-linejoin="round" fill-opacity="0" stroke="rgb(0,0,0)" stroke-opacity="1" stroke-width="8" d=" M19.200000762939453,28 C19.200000762939453,28 -20,28 -20,28 C-24.399999618530273,28 -28,24.399999618530273 -28,20 C-28,20 -28,-20 -28,-20 C-28,-24.399999618530273 -24.399999618530273,-28 -20,-28 C-20,-28 20,-28 20,-28 C24.399999618530273,-28 28,-24.399999618530273 28,-20 C28,-20 28,19.200000762939453 28,19.200000762939453 C28,24 24,28 19.200000762939453,28z"></path></g><g opacity="1" transform="matrix(1,0,0,1,73.65699768066406,257.6570129394531)"><path stroke-linecap="round" stroke-linejoin="round" fill-opacity="0" stroke="rgb(0,0,0)" stroke-opacity="1" stroke-width="8" d=" M20,28 C20,28 -20,28 -20,28 C-24.399999618530273,28 -28,24.399999618530273 -28,20 C-28,20 -28,-20 -28,-20 C-28,-24.399999618530273 -24.399999618530273,-28 -20,-28 C-20,-28 20,-28 20,-28 C24.399999618530273,-28 28,-24.399999618530273 28,-20 C28,-20 28,20 28,20 C28,24.399999618530273 24.399999618530273,28 20,28z"></path></g></g><g transform="matrix(1,0,0,1,402.343017578125,394.343017578125)" opacity="1" style="display: block;"><g opacity="1" transform="matrix(1,0,0,1,141.65699768066406,171.65699768066406)"><path fill="rgb(255,255,255)" fill-opacity="1" d=" M-136,-166 C-136,-166 136,-166 136,-166 C136,-166 136,166 136,166 C136,166 -136,166 -136,166 C-136,166 -136,-166 -136,-166z"></path><path stroke-linecap="round" stroke-linejoin="round" fill-opacity="0" stroke="rgb(0,93,255)" stroke-opacity="1" stroke-width="8" d=" M-136,-166 C-136,-166 136,-166 136,-166 C136,-166 136,166 136,166 C136,166 -136,166 -136,166 C-136,166 -136,-166 -136,-166z"></path></g><g opacity="1" transform="matrix(1,0,0,1,77.65699768066406,93.65699768066406)"><path fill="rgb(255,255,255)" fill-opacity="1" d=" M20,28 C20,28 -20,28 -20,28 C-24.399999618530273,28 -28,24.399999618530273 -28,20 C-28,20 -28,-20 -28,-20 C-28,-24.399999618530273 -24.399999618530273,-28 -20,-28 C-20,-28 20,-28 20,-28 C24.399999618530273,-28 28,-24.399999618530273 28,-20 C28,-20 28,20 28,20 C28,24.399999618530273 24.399999618530273,28 20,28z"></path></g><g opacity="1" transform="matrix(1,0,0,1,77.65699768066406,173.65699768066406)"><path fill="rgb(255,255,255)" fill-opacity="1" d=" M20,28 C20,28 -20,28 -20,28 C-24.399999618530273,28 -28,24.399999618530273 -28,20 C-28,20 -28,-20 -28,-20 C-28,-24.399999618530273 -24.399999618530273,-28 -20,-28 C-20,-28 19.200000762939453,-28 19.200000762939453,-28 C24,-28 28,-24 28,-19.200000762939453 C28,-19.200000762939453 28,20 28,20 C28,24.399999618530273 24.399999618530273,28 20,28z"></path></g><g opacity="1" transform="matrix(1,0,0,1,77.65699768066406,253.65699768066406)"><path fill="rgb(255,255,255)" fill-opacity="1" d=" M20,28 C20,28 -20,28 -20,28 C-24.399999618530273,28 -28,24.399999618530273 -28,20 C-28,20 -28,-20 -28,-20 C-28,-24.399999618530273 -24.399999618530273,-28 -20,-28 C-20,-28 20,-28 20,-28 C24.399999618530273,-28 28,-24.399999618530273 28,-20 C28,-20 28,20 28,20 C28,24.399999618530273 24.399999618530273,28 20,28z"></path></g><g opacity="1" transform="matrix(1,0,0,1,77.65699768066406,93.65699768066406)"><path stroke-linecap="round" stroke-linejoin="round" fill-opacity="0" stroke="rgb(0,93,255)" stroke-opacity="1" stroke-width="8" d=" M20,28 C20,28 -20,28 -20,28 C-24.399999618530273,28 -28,24.399999618530273 -28,20 C-28,20 -28,-20 -28,-20 C-28,-24.399999618530273 -24.399999618530273,-28 -20,-28 C-20,-28 20,-28 20,-28 C24.399999618530273,-28 28,-24.399999618530273 28,-20 C28,-20 28,20 28,20 C28,24.399999618530273 24.399999618530273,28 20,28z"></path></g><g opacity="1" transform="matrix(1,0,0,1,77.65699768066406,173.65699768066406)"><path stroke-linecap="round" stroke-linejoin="round" fill-opacity="0" stroke="rgb(0,93,255)" stroke-opacity="1" stroke-width="8" d=" M20,28 C20,28 -20,28 -20,28 C-24.399999618530273,28 -28,24.399999618530273 -28,20 C-28,20 -28,-20 -28,-20 C-28,-24.399999618530273 -24.399999618530273,-28 -20,-28 C-20,-28 19.200000762939453,-28 19.200000762939453,-28 C24,-28 28,-24 28,-19.200000762939453 C28,-19.200000762939453 28,20 28,20 C28,24.399999618530273 24.399999618530273,28 20,28z"></path></g><g opacity="1" transform="matrix(1,0,0,1,77.65699768066406,253.65699768066406)"><path stroke-linecap="round" stroke-linejoin="round" fill-opacity="0" stroke="rgb(0,93,255)" stroke-opacity="1" stroke-width="8" d=" M20,28 C20,28 -20,28 -20,28 C-24.399999618530273,28 -28,24.399999618530273 -28,20 C-28,20 -28,-20 -28,-20 C-28,-24.399999618530273 -24.399999618530273,-28 -20,-28 C-20,-28 20,-28 20,-28 C24.399999618530273,-28 28,-24.399999618530273 28,-20 C28,-20 28,20 28,20 C28,24.399999618530273 24.399999618530273,28 20,28z"></path></g></g><g transform="matrix(0.9987874627113342,-0.0022661807015538216,0.0022661807015538216,0.9987874627113342,443.0765075683594,457.7596130371094)" opacity="1" style="display: block;"><g opacity="1" transform="matrix(1,0,0,1,37.20000076293945,31.600000381469727)"><path stroke-linecap="round" stroke-linejoin="round" fill-opacity="0" stroke="rgb(0,93,255)" stroke-opacity="1" stroke-width="8" d=" M-17.200000762939453,0.800000011920929 C-17.200000762939453,0.800000011920929 -5.599999904632568,11.600000381469727 -5.599999904632568,11.600000381469727 C-5.599999904632568,11.600000381469727 0.07500000298023224,5.824999809265137 5.76200008392334,0.03799999877810478"></path></g></g><g transform="matrix(0.7532280087471008,-0.0017090231413021684,0.0021082633174955845,0.9291875958442688,527.125,722.5989990234375)" opacity="1" style="display: block;"><g opacity="1" transform="matrix(1.3456799983978271,0,0,1.0068299770355225,0,0)"><path stroke-linecap="round" stroke-linejoin="miter" fill-opacity="0" stroke-miterlimit="4" stroke="rgb(167,175,180)" stroke-opacity="1" stroke-width="9" d=" M9,-73.5 C9,-73.5 58.375,-73.43599700927734 58.375,-73.43599700927734"></path></g></g><g transform="matrix(0.7532280087471008,-0.0017090231413021684,0.0021082633174955845,0.9291875958442688,527.0700073242188,698.1290283203125)" opacity="1" style="display: block;"><g opacity="1" transform="matrix(1.3456799983978271,0,0,1.0068299770355225,0,0)"><path stroke-linecap="round" stroke-linejoin="miter" fill-opacity="0" stroke-miterlimit="4" stroke="rgb(167,175,180)" stroke-opacity="1" stroke-width="9" d=" M9,-73.5 C9,-73.5 100.5,-73.5 100.5,-73.5"></path></g></g><g transform="matrix(0.7532280087471008,-0.0017090231413021684,0.0021082633174955845,0.9291875958442688,526.947998046875,644.1939697265625)" opacity="1" style="display: block;"><g opacity="1" transform="matrix(1.3456799983978271,0,0,1.0068299770355225,0,0)"><path stroke-linecap="round" stroke-linejoin="miter" fill-opacity="0" stroke-miterlimit="4" stroke="rgb(167,175,180)" stroke-opacity="1" stroke-width="9" d=" M9,-73.5 C9,-73.5 58.375,-73.43599700927734 58.375,-73.43599700927734"></path></g></g><g transform="matrix(0.7532280087471008,-0.0017090231413021684,0.0021082633174955845,0.9291875958442688,526.8920288085938,619.7239990234375)" opacity="1" style="display: block;"><g opacity="1" transform="matrix(1.3456799983978271,0,0,1.0068299770355225,0,0)"><path stroke-linecap="round" stroke-linejoin="miter" fill-opacity="0" stroke-miterlimit="4" stroke="rgb(167,175,180)" stroke-opacity="1" stroke-width="9" d=" M9,-73.5 C9,-73.5 100.5,-73.5 100.5,-73.5"></path></g></g><g transform="matrix(0.7532280087471008,-0.0017090231413021684,0.0021082633174955845,0.9291875958442688,526.7689819335938,565.2899780273438)" opacity="1" style="display: block;"><g opacity="1" transform="matrix(1.3456799983978271,0,0,1.0068299770355225,0,0)"><path stroke-linecap="round" stroke-linejoin="miter" fill-opacity="0" stroke-miterlimit="4" stroke="rgb(167,175,180)" stroke-opacity="1" stroke-width="9" d=" M9,-73.5 C9,-73.5 58.375,-73.43599700927734 58.375,-73.43599700927734"></path></g></g><g transform="matrix(0.7532280087471008,-0.0017090231413021684,0.0021082633174955845,0.9291875958442688,526.7139892578125,540.8200073242188)" opacity="1" style="display: block;"><g opacity="1" transform="matrix(1.3456799983978271,0,0,1.0068299770355225,0,0)"><path stroke-linecap="round" stroke-linejoin="round" fill-opacity="0" stroke="rgb(167,175,180)" stroke-opacity="1" stroke-width="9" d=" M9,-73.5 C9,-73.5 100.5,-73.5 100.5,-73.5"></path></g></g><g style="display: block;" transform="matrix(1,0,0,1,465.1601867675781,208.55508422851562)" opacity="1"><g opacity="1" transform="matrix(1,0,0,1,134.60000610351562,165.39999389648438)"><path fill="rgb(255,255,255)" fill-opacity="1" d=" M114.5999984741211,-63.400001525878906 C114.5999984741211,-63.400001525878906 -35.79999923706055,87 -35.79999923706055,87 C-35.79999923706055,87 -114.5999984741211,114.5999984741211 -114.5999984741211,114.5999984741211 C-114.5999984741211,114.5999984741211 -87,35.79999923706055 -87,35.79999923706055 C-87,35.79999923706055 63.400001525878906,-114.5999984741211 63.400001525878906,-114.5999984741211 C63.400001525878906,-114.5999984741211 114.5999984741211,-63.400001525878906 114.5999984741211,-63.400001525878906z"></path></g><g opacity="1" transform="matrix(1,0,0,1,148.48599243164062,151.83200073242188)"><path fill="rgb(255,255,255)" fill-opacity="1" d=" M-100.83200073242188,49.63800048828125 C-100.83200073242188,49.63800048828125 49.638999938964844,-100.83200073242188 49.638999938964844,-100.83200073242188 C49.638999938964844,-100.83200073242188 100.83300018310547,-49.63800048828125 100.83300018310547,-49.63800048828125 C100.83300018310547,-49.63800048828125 -49.638999938964844,100.83200073242188 -49.638999938964844,100.83200073242188 C-49.638999938964844,100.83200073242188 -100.83200073242188,49.63800048828125 -100.83200073242188,49.63800048828125z"></path></g><g opacity="1" transform="matrix(1,0,0,1,36.79999923706055,262.3999938964844)"><path fill="rgb(0,0,0)" fill-opacity="1" d=" M-4.800000190734863,-16.799999237060547 C-4.800000190734863,-16.799999237060547 -16.799999237060547,16.799999237060547 -16.799999237060547,16.799999237060547 C-16.799999237060547,16.799999237060547 16.799999237060547,4.800000190734863 16.799999237060547,4.800000190734863 C16.799999237060547,4.800000190734863 -4.800000190734863,-16.799999237060547 -4.800000190734863,-16.799999237060547z"></path></g><g opacity="1" transform="matrix(1,0,0,1,134.60000610351562,165.39999389648438)"><path stroke-linecap="round" stroke-linejoin="round" fill-opacity="0" stroke="rgb(0,0,0)" stroke-opacity="1" stroke-width="8" d=" M114.5999984741211,-63.400001525878906 C114.5999984741211,-63.400001525878906 -35.79999923706055,87 -35.79999923706055,87 C-35.79999923706055,87 -114.5999984741211,114.5999984741211 -114.5999984741211,114.5999984741211 C-114.5999984741211,114.5999984741211 -87,35.79999923706055 -87,35.79999923706055 C-87,35.79999923706055 63.400001525878906,-114.5999984741211 63.400001525878906,-114.5999984741211 C63.400001525878906,-114.5999984741211 114.5999984741211,-63.400001525878906 114.5999984741211,-63.400001525878906z"></path></g><g opacity="1" transform="matrix(1,0,0,1,239,61)"><path fill="rgb(0,0,0)" fill-opacity="1" d=" M10.199999809265137,41 C10.199999809265137,41 34.20000076293945,17 34.20000076293945,17 C41,10.199999809265137 41,-0.6000000238418579 34.20000076293945,-7 C34.20000076293945,-7 7,-34.20000076293945 7,-34.20000076293945 C0.20000000298023224,-41 -10.600000381469727,-41 -17,-34.20000076293945 C-17,-34.20000076293945 -41,-10.199999809265137 -41,-10.199999809265137 C-41,-10.199999809265137 10.199999809265137,41 10.199999809265137,41z"></path></g><g opacity="1" transform="matrix(1,0,0,1,239,61)"><path stroke-linecap="round" stroke-linejoin="round" fill-opacity="0" stroke="rgb(0,0,0)" stroke-opacity="1" stroke-width="8" d=" M10.199999809265137,41 C10.199999809265137,41 34.20000076293945,17 34.20000076293945,17 C41,10.199999809265137 41,-0.6000000238418579 34.20000076293945,-7 C34.20000076293945,-7 7,-34.20000076293945 7,-34.20000076293945 C0.20000000298023224,-41 -10.600000381469727,-41 -17,-34.20000076293945 C-17,-34.20000076293945 -41,-10.199999809265137 -41,-10.199999809265137 C-41,-10.199999809265137 10.199999809265137,41 10.199999809265137,41z"></path></g><g opacity="1" transform="matrix(1,0,0,1,178.60000610351562,142.60000610351562)"><path stroke-linecap="round" stroke-linejoin="round" fill-opacity="0" stroke="rgb(0,0,0)" stroke-opacity="1" stroke-width="8" d=" M-52.599998474121094,52.599998474121094 C-52.599998474121094,52.599998474121094 52.599998474121094,-52.599998474121094 52.599998474121094,-52.599998474121094"></path></g><g opacity="1" transform="matrix(1,0,0,1,95.80000305175781,225.39999389648438)"><path stroke-linecap="round" stroke-linejoin="round" fill-opacity="0" stroke="rgb(0,0,0)" stroke-opacity="1" stroke-width="8" d=" M-12.199999809265137,12.199999809265137 C-12.199999809265137,12.199999809265137 12.199999809265137,-12.199999809265137 12.199999809265137,-12.199999809265137"></path></g><g opacity="1" transform="matrix(1,0,0,1,222.21200561523438,78.28500366210938)"><path fill="rgb(255,255,255)" fill-opacity="1" d=" M-36.0620002746582,-15.131999969482422 C-36.0620002746582,-15.131999969482422 -15.131999969482422,-36.0620002746582 -15.131999969482422,-36.0620002746582 C-15.131999969482422,-36.0620002746582 36.0620002746582,15.131999969482422 36.0620002746582,15.131999969482422 C36.0620002746582,15.131999969482422 15.131999969482422,36.0620002746582 15.131999969482422,36.0620002746582 C15.131999969482422,36.0620002746582 -36.0620002746582,-15.131999969482422 -36.0620002746582,-15.131999969482422z"></path></g><g opacity="1" transform="matrix(1,0,0,1,59.599998474121094,157.60000610351562)"><path fill="rgb(128,128,128)" fill-opacity="1" d="M0 0"></path></g><g opacity="1" transform="matrix(1,0,0,1,222.21200561523438,78.28500366210938)"><path stroke-linecap="round" stroke-linejoin="round" fill-opacity="0" stroke="rgb(0,0,0)" stroke-opacity="1" stroke-width="8" d=" M-36.0620002746582,-15.131999969482422 C-36.0620002746582,-15.131999969482422 -15.131999969482422,-36.0620002746582 -15.131999969482422,-36.0620002746582 C-15.131999969482422,-36.0620002746582 36.0620002746582,15.131999969482422 36.0620002746582,15.131999969482422 C36.0620002746582,15.131999969482422 15.131999969482422,36.0620002746582 15.131999969482422,36.0620002746582 C15.131999969482422,36.0620002746582 -36.0620002746582,-15.131999969482422 -36.0620002746582,-15.131999969482422z"></path></g></g></g></svg>