<svg width="172" height="25" viewBox="0 0 172 25" fill="none" xmlns="http://www.w3.org/2000/svg">
<path d="M38.0039 19V5.21161H43.6768C44.5435 5.21161 45.3051 5.38889 45.9617 5.74345C46.6314 6.08488 47.1502 6.57075 47.5178 7.20108C47.8987 7.83141 48.0891 8.57992 48.0891 9.44662V9.72239C48.0891 10.5759 47.8921 11.3245 47.4981 11.9679C47.1173 12.5982 46.5921 13.0907 45.9223 13.4452C45.2657 13.7867 44.5172 13.9574 43.6768 13.9574H40.6039V19H38.0039ZM40.6039 11.5937H43.4207C44.0379 11.5937 44.5369 11.4229 44.9177 11.0815C45.2986 10.7401 45.489 10.2739 45.489 9.68299V9.48601C45.489 8.89508 45.2986 8.4289 44.9177 8.08748C44.5369 7.74605 44.0379 7.57534 43.4207 7.57534H40.6039V11.5937ZM49.9705 19V9.22994H52.413V10.333H52.7676C52.912 9.93906 53.1484 9.65016 53.4767 9.46632C53.8181 9.28247 54.2121 9.19055 54.6586 9.19055H55.8404V11.3967H54.6192C53.9889 11.3967 53.4701 11.5674 53.0631 11.9088C52.656 12.2371 52.4524 12.7493 52.4524 13.4452V19H49.9705ZM62.0828 19.2758C61.111 19.2758 60.2377 19.0788 59.463 18.6848C58.6882 18.2909 58.0776 17.7196 57.6311 16.9711C57.1846 16.2226 56.9614 15.3231 56.9614 14.2725V13.9574C56.9614 12.9068 57.1846 12.0073 57.6311 11.2588C58.0776 10.5103 58.6882 9.93906 59.463 9.54511C60.2377 9.15115 61.111 8.95418 62.0828 8.95418C63.0545 8.95418 63.9278 9.15115 64.7026 9.54511C65.4773 9.93906 66.088 10.5103 66.5344 11.2588C66.9809 12.0073 67.2042 12.9068 67.2042 13.9574V14.2725C67.2042 15.3231 66.9809 16.2226 66.5344 16.9711C66.088 17.7196 65.4773 18.2909 64.7026 18.6848C63.9278 19.0788 63.0545 19.2758 62.0828 19.2758ZM62.0828 17.0696C62.8444 17.0696 63.4747 16.8267 63.9737 16.3408C64.4728 15.8418 64.7223 15.1327 64.7223 14.2135V14.0165C64.7223 13.0973 64.4728 12.3947 63.9737 11.9088C63.4879 11.4098 62.8575 11.1603 62.0828 11.1603C61.3211 11.1603 60.6908 11.4098 60.1918 11.9088C59.6928 12.3947 59.4433 13.0973 59.4433 14.0165V14.2135C59.4433 15.1327 59.6928 15.8418 60.1918 16.3408C60.6908 16.8267 61.3211 17.0696 62.0828 17.0696ZM69.4951 22.9395V9.22994H71.9376V10.4118H72.2922C72.5154 10.031 72.8634 9.69612 73.3362 9.40722C73.8089 9.10519 74.4852 8.95418 75.365 8.95418C76.1529 8.95418 76.8817 9.15115 77.5515 9.54511C78.2212 9.92593 78.7596 10.4906 79.1667 11.2391C79.5738 11.9876 79.7773 12.8937 79.7773 13.9574V14.2725C79.7773 15.3362 79.5738 16.2423 79.1667 16.9908C78.7596 17.7393 78.2212 18.3106 77.5515 18.7045C76.8817 19.0854 76.1529 19.2758 75.365 19.2758C74.7741 19.2758 74.2751 19.2035 73.868 19.0591C73.474 18.9278 73.1523 18.7571 72.9028 18.547C72.6664 18.3237 72.476 18.1005 72.3316 17.8772H71.977V22.9395H69.4951ZM74.6165 17.109C75.3913 17.109 76.0282 16.8661 76.5272 16.3802C77.0393 15.8812 77.2954 15.1589 77.2954 14.2135V14.0165C77.2954 13.071 77.0393 12.3553 76.5272 11.8694C76.015 11.3704 75.3782 11.1209 74.6165 11.1209C73.8549 11.1209 73.218 11.3704 72.7058 11.8694C72.1937 12.3553 71.9376 13.071 71.9376 14.0165V14.2135C71.9376 15.1589 72.1937 15.8812 72.7058 16.3802C73.218 16.8661 73.8549 17.109 74.6165 17.109ZM85.1685 19V7.57534H81.1501V5.21161H91.7869V7.57534H87.7686V19H85.1685ZM96.2414 19.2758C95.2696 19.2758 94.4095 19.0722 93.661 18.6651C92.9256 18.2449 92.3478 17.6606 91.9276 16.912C91.5205 16.1504 91.3169 15.2574 91.3169 14.2332V13.9968C91.3169 12.9725 91.5205 12.0861 91.9276 11.3376C92.3347 10.5759 92.9059 9.99159 93.6413 9.5845C94.3767 9.16429 95.2302 8.95418 96.202 8.95418C97.1606 8.95418 97.9945 9.17085 98.7036 9.6042C99.4127 10.0244 99.9642 10.6153 100.358 11.377C100.752 12.1255 100.949 12.9988 100.949 13.9968V14.8438H93.8382C93.8645 15.5135 94.114 16.0585 94.5868 16.4787C95.0595 16.8989 95.6373 17.109 96.3202 17.109C97.0161 17.109 97.5283 16.958 97.8566 16.656C98.1849 16.3539 98.4344 16.0191 98.6051 15.6514L100.634 16.7151C100.45 17.0565 100.181 17.4307 99.8264 17.8378C99.4849 18.2318 99.0253 18.5732 98.4475 18.8621C97.8697 19.1379 97.1343 19.2758 96.2414 19.2758ZM93.8579 12.9922H98.4278C98.3753 12.4275 98.1455 11.9745 97.7384 11.6331C97.3444 11.2916 96.8257 11.1209 96.1823 11.1209C95.5126 11.1209 94.9807 11.2916 94.5868 11.6331C94.1928 11.9745 93.9499 12.4275 93.8579 12.9922ZM107.748 19.2758C106.803 19.2758 105.942 19.0788 105.168 18.6848C104.406 18.2909 103.802 17.7196 103.355 16.9711C102.909 16.2226 102.686 15.3165 102.686 14.2529V13.9771C102.686 12.9134 102.909 12.0073 103.355 11.2588C103.802 10.5103 104.406 9.93906 105.168 9.54511C105.942 9.15115 106.803 8.95418 107.748 8.95418C108.68 8.95418 109.481 9.11832 110.151 9.44662C110.821 9.77491 111.359 10.228 111.766 10.8058C112.187 11.3704 112.462 12.0139 112.594 12.7361L110.191 13.2483C110.138 12.8543 110.02 12.4998 109.836 12.1846C109.652 11.8694 109.39 11.6199 109.048 11.4361C108.72 11.2522 108.306 11.1603 107.807 11.1603C107.308 11.1603 106.855 11.2719 106.448 11.4952C106.054 11.7053 105.739 12.027 105.503 12.4604C105.279 12.8806 105.168 13.3993 105.168 14.0165V14.2135C105.168 14.8307 105.279 15.3559 105.503 15.7893C105.739 16.2095 106.054 16.5312 106.448 16.7545C106.855 16.9646 107.308 17.0696 107.807 17.0696C108.556 17.0696 109.12 16.8792 109.501 16.4984C109.895 16.1044 110.145 15.5923 110.25 14.962L112.653 15.5332C112.482 16.2292 112.187 16.8661 111.766 17.4439C111.359 18.0085 110.821 18.455 110.151 18.7833C109.481 19.1116 108.68 19.2758 107.748 19.2758ZM114.7 19V5.21161H117.182V10.4315H117.537C117.642 10.2214 117.806 10.0113 118.029 9.80118C118.252 9.59107 118.548 9.42036 118.915 9.28904C119.296 9.14459 119.776 9.07236 120.353 9.07236C121.115 9.07236 121.778 9.24964 122.343 9.6042C122.921 9.94563 123.367 10.4249 123.682 11.0421C123.997 11.6462 124.155 12.3553 124.155 13.1695V19H121.673V13.3665C121.673 12.6311 121.489 12.0795 121.122 11.7118C120.767 11.3442 120.255 11.1603 119.585 11.1603C118.824 11.1603 118.233 11.4164 117.812 11.9285C117.392 12.4275 117.182 13.1301 117.182 14.0362V19H114.7ZM126.365 19V16.7151H128.178V7.49655H126.365V5.21161H133.456C134.297 5.21161 135.026 5.35606 135.643 5.64496C136.273 5.92073 136.759 6.32125 137.101 6.84652C137.455 7.35866 137.632 7.97586 137.632 8.69811V8.89508C137.632 9.52541 137.514 10.0441 137.278 10.4512C137.041 10.8451 136.759 11.1537 136.431 11.377C136.116 11.5871 135.814 11.7381 135.525 11.83V12.1846C135.814 12.2634 136.129 12.4144 136.47 12.6376C136.812 12.8477 137.101 13.1563 137.337 13.5634C137.586 13.9705 137.711 14.5024 137.711 15.1589V15.3559C137.711 16.1176 137.534 16.7742 137.179 17.3257C136.825 17.8641 136.332 18.2778 135.702 18.5667C135.085 18.8556 134.363 19 133.535 19H126.365ZM130.778 16.6363H133.22C133.785 16.6363 134.238 16.4984 134.579 16.2226C134.934 15.9469 135.111 15.5529 135.111 15.0408V14.8438C135.111 14.3316 134.94 13.9377 134.599 13.6619C134.258 13.3862 133.798 13.2483 133.22 13.2483H130.778V16.6363ZM130.778 10.8845H133.181C133.719 10.8845 134.159 10.7467 134.5 10.4709C134.855 10.1951 135.032 9.81431 135.032 9.32843V9.13146C135.032 8.63245 134.862 8.25162 134.52 7.98899C134.179 7.71322 133.732 7.57534 133.181 7.57534H130.778V10.8845ZM143.641 19.1576C142.88 19.1576 142.21 18.9869 141.632 18.6454C141.068 18.2909 140.628 17.805 140.313 17.1878C139.997 16.5706 139.84 15.8615 139.84 15.0605V9.22994H142.322V14.8635C142.322 15.5989 142.499 16.1504 142.854 16.5181C143.221 16.8858 143.74 17.0696 144.41 17.0696C145.171 17.0696 145.762 16.8201 146.182 16.3211C146.603 15.809 146.813 15.0999 146.813 14.1938V9.22994H149.295V19H146.852V17.7196H146.498C146.34 18.0479 146.045 18.3697 145.611 18.6848C145.178 19 144.521 19.1576 143.641 19.1576ZM151.702 19V16.0453L157.06 11.5937V11.2785H151.899V9.22994H159.778V12.1846L154.42 16.6363V16.9514H159.936V19H151.702ZM161.897 19V16.0453L167.255 11.5937V11.2785H162.094V9.22994H169.973V12.1846L164.615 16.6363V16.9514H170.131V19H161.897Z" fill="black"/>
<path fill-rule="evenodd" clip-rule="evenodd" d="M19.8676 4.37585H12L15.9338 11.1894L19.8676 4.37585Z" fill="#5BC8F8"/>
<path fill-rule="evenodd" clip-rule="evenodd" d="M19.8676 18.0029L15.9338 24.8206L12 18.0029L15.9338 11.1853L19.8676 18.0029ZM27.7351 4.37585L31.6689 11.1935L27.7351 18.0111H19.8676L23.8013 11.1935L19.8676 4.37585H27.7351Z" fill="#5BC8F8"/>
<mask id="mask0_87_2" style="mask-type:luminance" maskUnits="userSpaceOnUse" x="0" y="4" width="12" height="13">
<path d="M8.26187 4.95546L0 8.51184L3.55638 16.7737L11.8183 13.2173L8.26187 4.95546Z" fill="white"/>
</mask>
<g mask="url(#mask0_87_2)">
<path d="M3.75006 10.8364C3.99841 10.7295 4.24442 10.5926 4.48131 10.4298C4.5991 10.3488 4.84137 10.1606 5.07666 9.95763C5.5306 9.56587 5.57819 9.44714 5.60107 9.39008C5.64404 9.28267 5.61197 9.15975 5.52195 9.08703C5.4655 9.04147 5.41487 8.99849 5.36585 8.95698C5.25943 8.86682 5.15898 8.7817 5.01883 8.68453C4.7687 8.51098 4.55279 8.39645 4.27347 8.28926C3.92816 8.15668 3.60297 8.04533 3.11919 8.02533C2.66445 8.0065 2.16151 8.09994 1.73912 8.28176C1.07866 8.56606 0.666152 9.03725 0.607284 9.57445C0.550742 10.0903 0.852392 10.5324 1.50376 10.8885C1.8988 11.1044 2.5269 11.1353 2.94326 11.0726C3.20645 11.033 3.47792 10.9535 3.75006 10.8364Z" fill="#FFA804"/>
<path d="M6.42212 8.77726C6.43492 8.77175 6.44747 8.76515 6.45947 8.75745C6.65005 8.63611 6.92835 8.17667 6.93094 8.17227C7.05398 7.96203 7.13293 7.76204 7.18684 7.52366C7.2982 7.03118 7.1456 6.49581 6.81573 6.22172C6.59732 6.04028 6.32984 5.9974 6.08193 6.10411C5.91483 6.17604 5.76393 6.3125 5.63325 6.50966C5.40315 6.85683 5.36111 7.31476 5.51485 7.79914C5.64372 8.20524 5.8957 8.57142 6.17235 8.75485C6.24728 8.80448 6.34131 8.81204 6.42212 8.77726Z" fill="#FFA804"/>
<path d="M10.0863 9.71286C9.32123 8.96876 8.20376 8.74592 7.21582 9.13293C7.24016 9.86779 7.64922 10.7198 8.3162 11.4034C9.04356 12.1487 9.98231 12.588 10.746 12.5614C11.0902 11.5955 10.868 10.4734 10.0863 9.71286Z" fill="#FFA804"/>
<path d="M7.93865 11.7715C7.24295 11.0586 6.80399 10.2009 6.70746 9.39697C6.54785 9.50296 6.39949 9.62607 6.26368 9.76566C5.94511 10.093 5.64914 10.6291 5.41895 11.2777C5.67263 11.9011 6.07546 12.5042 6.59882 13.0406C7.21088 13.6677 7.93082 14.1371 8.64859 14.3877C8.75761 14.3461 8.86351 14.3037 8.96411 14.2604C9.49957 14.0299 9.89468 13.7859 10.1386 13.5351C10.2752 13.3947 10.3933 13.243 10.4932 13.0832C9.64164 13.0224 8.69647 12.5481 7.93865 11.7715Z" fill="#FFA804"/>
<path d="M5.19497 12.0306C5.17785 12.1005 5.16142 12.171 5.14585 12.2423C4.91453 13.3021 4.91219 14.2504 5.13975 14.779C5.23976 15.0114 5.53668 15.0383 5.78406 15.0359C6.02114 15.0335 6.33631 14.9976 6.69557 14.9321C7.08835 14.8605 7.5016 14.7598 7.89876 14.6413C7.30355 14.3468 6.72733 13.9265 6.222 13.4086C5.80683 12.9831 5.46054 12.5172 5.19497 12.0306Z" fill="#FFA804"/>
</g>
</svg>
