<svg width="800" height="800" viewBox="0 0 800 800" fill="none" xmlns="http://www.w3.org/2000/svg">
<g clip-path="url(#clip0_91_2)">
<path d="M93.3331 173.333L233.333 266.667L372.866 71.3335C375.95 67.0124 380.021 63.4903 384.74 61.0602C389.46 58.6301 394.691 57.3623 400 57.3623C405.308 57.3623 410.54 58.6301 415.259 61.0602C419.979 63.4903 424.05 67.0124 427.133 71.3335L566.666 266.667L706.666 173.333C711.965 169.808 718.162 167.874 724.525 167.758C730.888 167.642 737.151 169.351 742.574 172.681C747.997 176.011 752.353 180.824 755.128 186.551C757.903 192.278 758.98 198.68 758.233 205L703.466 670.567C702.511 678.675 698.613 686.151 692.512 691.576C686.411 697.002 678.531 699.999 670.366 700H129.633C121.469 699.999 113.589 697.002 107.487 691.576C101.386 686.151 97.4883 678.675 96.5331 670.567L41.7664 204.967C41.0264 198.65 42.1093 192.252 44.8871 186.531C47.665 180.809 52.0219 176.001 57.4435 172.675C62.8651 169.35 69.125 167.644 75.4844 167.761C81.8438 167.878 88.037 169.811 93.3331 173.333ZM400 500C417.681 500 434.638 492.976 447.14 480.474C459.643 467.971 466.666 451.015 466.666 433.333C466.666 415.652 459.643 398.695 447.14 386.193C434.638 373.691 417.681 366.667 400 366.667C382.319 366.667 365.362 373.691 352.859 386.193C340.357 398.695 333.333 415.652 333.333 433.333C333.333 451.015 340.357 467.971 352.859 480.474C365.362 492.976 382.319 500 400 500Z" fill="#FFD700"/>
</g>
<defs>
<clipPath id="clip0_91_2">
<rect width="800" height="800" fill="white"/>
</clipPath>
</defs>
</svg>
